<?xml version="1.0" encoding="UTF-8" standalone="no"?>
<!-- Generated by IcoMoon.io -->

<svg
   version="1.1"
   width="32"
   height="32"
   viewBox="0 0 32 32"
   id="svg4"
   sodipodi:docname="css3.svg"
   inkscape:version="1.1.2 (b8e25be833, 2022-02-05)"
   xmlns:inkscape="http://www.inkscape.org/namespaces/inkscape"
   xmlns:sodipodi="http://sodipodi.sourceforge.net/DTD/sodipodi-0.dtd"
   xmlns="http://www.w3.org/2000/svg"
   xmlns:svg="http://www.w3.org/2000/svg">
  <defs
     id="defs8" />
  <sodipodi:namedview
     id="namedview6"
     pagecolor="#505050"
     bordercolor="#eeeeee"
     borderopacity="1"
     inkscape:pageshadow="0"
     inkscape:pageopacity="0"
     inkscape:pagecheckerboard="0"
     showgrid="false"
     inkscape:zoom="25.71875"
     inkscape:cx="16"
     inkscape:cy="16.019441"
     inkscape:window-width="1920"
     inkscape:window-height="1009"
     inkscape:window-x="-8"
     inkscape:window-y="-8"
     inkscape:window-maximized="1"
     inkscape:current-layer="svg4" />
  <path
     fill="#444444"
     d="M16.017 21.044v0zM4.743 3.519l2.049 22.981 9.194 2.552 9.22-2.556 2.051-22.977h-22.514zM23 8.775l-0.693 7.767h-0l-0.48 5.359-0.042 0.476-5.781 1.603-5.773-1.603-0.395-4.426h2.829l0.201 2.248 3.142 0.847 0.008-0.002 0.002-0 3.134-0.846 0.329-3.655-6.579 0-0.056-0.633-0.129-1.429-0.067-0.756 7.081-0 0.258-2.886h-10.786l-0.056-0.634-0.129-1.429-0.067-0.756h14.118l-0.068 0.756z"
     id="path2" />
  <path
     style="fill:#1572b6;stroke-width:0.0388821;fill-opacity:1"
     d="M 14.114216,28.520659 C 13.09842,28.23611 11.051276,27.666871 9.5650061,27.255684 8.0787363,26.844496 6.8498027,26.496449 6.8340423,26.482245 6.8045939,26.455705 6.7845331,26.247432 6.4535752,22.532199 6.3468941,21.334629 6.2250815,19.969866 6.1828806,19.499392 6.0337379,17.836685 5.7123961,14.228122 5.5596402,12.500608 5.4745457,11.538275 5.3873848,10.567193 5.3659495,10.342649 5.3287133,9.9525836 5.1482503,7.9196586 4.8982614,5.0741191 4.8343839,4.3470231 4.7764884,3.7040097 4.7696048,3.6452005 L 4.7570891,3.5382746 H 15.998217 27.239346 l -0.04752,0.5346294 c -0.142523,1.6033346 -0.255206,2.8688637 -0.341881,3.8396112 -0.05346,0.5987849 -0.219614,2.4622118 -0.369224,4.1409478 -0.14961,1.678736 -0.31668,3.550911 -0.371267,4.160389 -0.05459,0.609477 -0.282741,3.163371 -0.507009,5.67532 -0.224267,2.511948 -0.420669,4.577934 -0.436448,4.591078 -0.01578,0.01314 -0.702323,0.209769 -1.525653,0.436942 -0.823329,0.227173 -2.861725,0.790931 -4.529769,1.252796 -1.668044,0.461864 -3.059052,0.846116 -3.09113,0.853893 -0.03208,0.0078 -0.889429,-0.218674 -1.905225,-0.503222 z m 3.878655,-5.07674 c 4.053439,-1.122411 3.820009,-1.052415 3.820009,-1.14546 0,-0.04594 0.166604,-1.94556 0.370232,-4.221372 0.535861,-5.988964 0.832301,-9.312072 0.856444,-9.6007808 0.01162,-0.1390036 0.02864,-0.3008505 0.03781,-0.3596598 l 0.01668,-0.1069259 H 16.01293 8.9318139 l 0.022457,0.2235723 c 0.012351,0.1229648 0.07062,0.7616039 0.1294849,1.4191981 l 0.1070278,1.1956261 h 5.3948734 5.394873 l -0.01759,0.126367 c -0.0097,0.0695 -0.06099,0.633778 -0.114026,1.253949 -0.05304,0.62017 -0.106905,1.210692 -0.119702,1.312272 l -0.02327,0.18469 h -3.53698 -3.536981 l 0.02552,0.262454 c 0.01404,0.14435 0.07196,0.778615 0.128722,1.409478 l 0.103201,1.147023 3.285962,0.01944 3.285962,0.01944 -0.159178,1.780142 c -0.08755,0.979078 -0.175222,1.79463 -0.194832,1.812337 -0.01961,0.01771 -0.726784,0.21779 -1.571499,0.444628 L 16,21.032771 14.444714,20.611072 c -1.038398,-0.28155 -1.558136,-0.439437 -1.563862,-0.475073 -0.0047,-0.02936 -0.04408,-0.447056 -0.08747,-0.928223 -0.04339,-0.481166 -0.08891,-0.966707 -0.101147,-1.078979 l -0.02226,-0.204131 h -1.416401 -1.4164 l 0.00107,0.126367 c 5.91e-4,0.0695 0.085744,1.070426 0.189231,2.224275 0.145374,1.620887 0.200387,2.102431 0.24194,2.117796 0.101602,0.03757 5.652815,1.588305 5.701574,1.59274 0.02682,0.0024 0.936663,-0.241427 2.021872,-0.541925 z"
     id="path862" />
</svg>
